<svg width="95" height="96" viewBox="0 0 95 96" fill="none" xmlns="http://www.w3.org/2000/svg">
<g id="moon">
<path id="Vector" d="M82.2187 52.0996C79.5602 52.8057 76.8212 53.1631 74.0705 53.1628C65.6947 53.1628 57.8289 49.9066 51.9208 43.9984C48.0411 40.0963 45.2518 35.2455 43.8311 29.9295C42.4104 24.6134 42.4078 19.0179 43.8236 13.7005C44.0004 13.0357 43.9993 12.3361 43.8203 11.6718C43.6414 11.0075 43.2909 10.402 42.804 9.91594C42.3172 9.42989 41.7111 9.0804 41.0465 8.90255C40.382 8.72469 39.6823 8.72471 39.0178 8.9026C32.361 10.6766 26.2876 14.1698 21.4071 19.032C6.11495 34.3241 6.11495 59.2161 21.4071 74.5161C25.0419 78.1712 29.3656 81.0691 34.1278 83.0421C38.8901 85.0152 43.9963 86.0242 49.1511 86.0107C54.3045 86.0251 59.4096 85.017 64.1706 83.0445C68.9316 81.0721 73.2539 78.1747 76.8873 74.52C81.7531 69.6385 85.248 63.562 87.0206 56.9014C87.1966 56.2369 87.1952 55.5378 87.0163 54.874C86.8375 54.2101 86.4875 53.6049 86.0014 53.1188C85.5153 52.6327 84.91 52.2827 84.2462 52.1038C83.5824 51.925 82.8833 51.9235 82.2187 52.0996ZM71.3439 68.9728C68.4368 71.8958 64.9789 74.2133 61.1701 75.7911C57.3614 77.3688 53.2776 78.1756 49.155 78.1645C45.0311 78.1748 40.946 77.3674 37.136 75.789C33.326 74.2106 29.8668 71.8925 26.9583 68.9688C14.7261 56.7328 14.7261 36.8192 26.9583 24.5831C29.3219 22.2221 32.0508 20.2576 35.0398 18.7652C34.6023 24.4108 35.3888 30.0842 37.3455 35.3978C39.3022 40.7115 42.3831 45.54 46.3775 49.5535C50.3822 53.5605 55.2093 56.6498 60.5252 58.6081C65.841 60.5663 71.5187 61.3466 77.1658 60.8951C75.6653 63.8791 73.7002 66.6056 71.3439 68.9728Z" fill="#F1C40F"/>
</g>
</svg>
